<svg id="Layer_1" enable-background="new 0 0 256 256" height="512" viewBox="0 0 256 256" width="512" xmlns="http://www.w3.org/2000/svg"><g><g><g><g><g><path d="m203.697 174.667c-1.657 0-3-1.343-3-3v-5c0-1.657 1.343-3 3-3s3 1.343 3 3v5c0 1.657-1.343 3-3 3z" fill="#4671c6"/></g></g></g><g><g><g><path d="m203.697 211.733c-1.657 0-3-1.343-3-3v-9.267c0-1.657 1.343-3 3-3s3 1.343 3 3v9.267c0 1.657-1.343 3-3 3zm0-18.533c-1.657 0-3-1.343-3-3v-9.267c0-1.657 1.343-3 3-3s3 1.343 3 3v9.267c0 1.657-1.343 3-3 3z" fill="#4671c6"/></g></g></g><g><g><g><path d="m203.697 226h-5c-1.657 0-3-1.343-3-3s1.343-3 3-3h2v-2c0-1.657 1.343-3 3-3s3 1.343 3 3v5c0 1.657-1.343 3-3 3z" fill="#4671c6"/></g></g></g><g><g><g><path d="m189.3 226h-9.397c-1.657 0-3-1.343-3-3s1.343-3 3-3h9.397c1.657 0 3 1.343 3 3s-1.343 3-3 3zm-18.795 0h-9.397c-1.657 0-3-1.343-3-3s1.343-3 3-3h9.397c1.657 0 3 1.343 3 3s-1.343 3-3 3zm-18.795 0h-9.397c-1.657 0-3-1.343-3-3s1.343-3 3-3h9.397c1.657 0 3 1.343 3 3s-1.343 3-3 3z" fill="#4671c6"/></g></g></g><g><g><g><path d="m132.915 226h-5c-1.657 0-3-1.343-3-3s1.343-3 3-3h5c1.657 0 3 1.343 3 3s-1.344 3-3 3z" fill="#4671c6"/></g></g></g></g><g><g><path d="m161.4 175.209h84.595c4.987 0 8.033-5.479 5.401-9.715l-42.298-68.073c-2.488-4.004-8.314-4.004-10.802 0l-42.298 68.073c-2.632 4.236.415 9.715 5.402 9.715z" fill="#f9a7a7"/></g></g><g><g><g><path d="m200.481 149.093-3.073-24.444c-.688-3.406 1.879-6.635 6.286-6.635 3.868 0 6.865 2.453 6.286 6.705l-3.143 24.374c-.195 2.226-1.544 3.282-3.143 3.282-1.833 0-2.959-1.327-3.213-3.282zm-2.724 12.92c0-3.403 2.416-6.006 5.937-6.006 3.523 0 5.937 2.606 5.937 6.006 0 3.411-2.423 6.006-5.937 6.006-3.521 0-5.937-2.602-5.937-6.006z" fill="#e0ebfc"/></g></g></g><g><g><path d="m245.995 177.209h-84.596c-3.079 0-5.81-1.606-7.305-4.297-1.496-2.691-1.419-5.858.206-8.474l42.298-68.073c1.536-2.471 4.19-3.947 7.1-3.947 2.91 0 5.564 1.476 7.099 3.947l42.298 68.073c1.625 2.615 1.702 5.782.206 8.473-1.496 2.692-4.227 4.298-7.306 4.298zm-42.297-80.79c-1.518 0-2.902.769-3.703 2.058l-42.298 68.073c-.847 1.363-.887 3.015-.107 4.418s2.204 2.241 3.81 2.241h84.596c1.605 0 3.03-.838 3.81-2.241s.74-3.055-.107-4.418l-42.298-68.073c-.802-1.289-2.186-2.058-3.703-2.058z" fill="#3762cc"/></g></g><g><g><g><path d="m207.433 68.045h-81.705c-13.478 0-23.3 0-36.386 0h-81.706c-2.353 0-4.198 2.022-3.983 4.365l.299 3.263c.236 2.576 1.467 4.958 3.431 6.642 1.646 1.411 3.709 2.245 5.873 2.376l64.959 3.911c0 4.557-.281-2.219 2.231 47.242l-2.537 100.461-14.265 10.599c-.859.638-1.365 1.645-1.365 2.715 0 1.868 1.514 3.382 3.382 3.382h25.418c3.208 0 5.808-2.6 5.808-5.808v-9.402l9.504-73.274c.147-1.136 1.792-1.136 1.939 0l9.532 73.487v9.19c0 3.208 2.6 5.808 5.808 5.808h25.418c1.868 0 3.382-1.514 3.382-3.382 0-1.07-.506-2.076-1.365-2.715l-14.265-10.599-.028.002-2.537-100.463c2.508-49.388 2.231-42.692 2.231-47.221l65.309-3.932c2.164-.13 4.227-.965 5.873-2.376 1.964-1.683 3.195-4.066 3.431-6.642l.299-3.263c.213-2.344-1.632-4.366-3.985-4.366z" fill="#f9cfcf"/></g></g><g><g><path d="m134.574 147.736h-54.429l-2.185 86.523h19.384l9.046-69.744c.147-1.136 1.792-1.136 1.939 0l9.046 69.744h19.384z" fill="#4671c6"/></g></g><g><g><path d="m170.349 68.045h-44.622c-13.478 0-23.3 0-36.386 0h-42.697v18.656l31.57 1.901c0 4.557-.281-2.219 2.231 47.242l-.339 13.406h54.505l-.339-13.406c2.508-49.388 2.231-42.692 2.231-47.221l33.845-2.037v-18.541z" fill="#e0ebfc"/></g></g><g><g><path d="m107.71 81.173c-6.423 0-11.629-5.207-11.629-11.629v-21.543h23.258v21.543c0 6.423-5.207 11.629-11.629 11.629z" fill="#f9cfcf"/></g></g><g><g><path d="m134.574 147.736h-54.429l-2.185 86.523h19.384l9.046-69.744c.147-1.136 1.792-1.136 1.939 0l9.046 69.744h19.384z" fill="#4671c6"/></g></g><g><g><path d="m149.086 255h-25.417c-4.306 0-7.809-3.503-7.809-7.809v-9.061l-8.501-65.543-8.474 65.331v9.273c0 4.306-3.503 7.809-7.808 7.809h-25.417c-2.968 0-5.382-2.414-5.382-5.382 0-1.694.812-3.31 2.172-4.32l13.483-10.018 2.51-99.411-1.287-25.25c-.833-16.292-.947-18.517-.952-20.135l-63.069-3.797c-2.584-.156-5.089-1.169-7.055-2.854-2.372-2.033-3.834-4.866-4.12-7.978l-.299-3.264c-.153-1.674.409-3.348 1.544-4.591 1.134-1.243 2.749-1.956 4.432-1.956h86.444v-18.043c0-1.104.896-2 2-2h23.258c1.104 0 2 .896 2 2v18.043h86.094c1.683 0 3.298.713 4.432 1.956s1.696 2.916 1.543 4.591l-.299 3.263c-.286 3.112-1.749 5.945-4.121 7.978-1.965 1.685-4.471 2.698-7.054 2.854l-63.421 3.818c-.005 1.626-.121 3.896-.961 20.316l-1.277 25.048 2.51 99.39 13.512 10.038c1.36 1.011 2.172 2.626 2.172 4.32-.001 2.97-2.415 5.384-5.383 5.384zm-41.727-93.337c1.516 0 2.758 1.091 2.953 2.595l9.531 73.486c.011.085.017.171.017.257v9.19c0 2.1 1.708 3.809 3.809 3.809h25.417c.762 0 1.382-.62 1.382-1.382 0-.435-.208-.85-.558-1.11l-14.131-10.499c-.106-.064-.207-.139-.299-.223-.405-.367-.655-.883-.669-1.43l-2.537-100.463c-.001-.05 0-.101.002-.152l1.281-25.125c1.072-20.95.963-18.688.947-21.995 0-1.058.824-1.933 1.88-1.997l65.31-3.932c1.718-.104 3.384-.777 4.692-1.898 1.577-1.352 2.55-3.236 2.74-5.306l.299-3.263c.052-.567-.131-1.11-.514-1.531-.384-.42-.908-.652-1.478-.652h-88.094c-1.104 0-2-.896-2-2v-18.041h-19.258v18.043c0 1.104-.896 2-2 2h-88.445c-.569 0-1.094.231-1.477.652s-.566.964-.514 1.53l.299 3.264c.189 2.069 1.163 3.953 2.74 5.305 1.308 1.121 2.974 1.794 4.692 1.898l64.958 3.911c1.056.064 1.88.938 1.88 1.997-.017 3.299-.123 1.087.937 21.813l1.292 25.327c.002.051.003.102.002.152l-2.537 100.461c-.016.615-.313 1.188-.807 1.555l-14.265 10.599c-.35.26-.558.674-.558 1.109 0 .762.62 1.382 1.382 1.382h25.418c2.1 0 3.808-1.708 3.808-3.809v-9.402c0-.086.005-.172.017-.257l9.504-73.274c.195-1.503 1.436-2.594 2.952-2.594z" fill="#3762cc"/></g></g><g><g><path d="m107.708 58.813c-14.492 0-26.239-11.748-26.239-26.239v-10.99c0-3.643 2.953-6.596 6.596-6.596h45.883v17.586c-.001 14.491-11.748 26.239-26.24 26.239z" fill="#4671c6"/></g></g><g><g><path d="m107.708 60.813c-15.571 0-28.24-12.668-28.24-28.24v-10.99c0-4.74 3.856-8.596 8.596-8.596h45.883c1.104 0 2 .896 2 2v17.586c0 15.572-12.668 28.24-28.239 28.24zm-19.644-43.826c-2.534 0-4.596 2.062-4.596 4.596v10.99c0 13.366 10.874 24.24 24.24 24.24s24.239-10.874 24.239-24.24v-15.586z" fill="#3762cc"/></g></g><g><g><path d="m130.056 34.347v-2.093c0-12.231-10.006-22.147-22.348-22.147-12.343 0-22.348 9.915-22.348 22.147v2.093c-3.881-.079-6.959 3.013-6.959 6.75 0 3.99 3.484 7.146 7.55 6.717 2.306 9.798 11.17 17.099 21.758 17.099 10.589 0 19.452-7.301 21.758-17.099 4.061.429 7.55-2.721 7.55-6.717-.002-3.739-3.083-6.829-6.961-6.75z" fill="#f9cfcf"/></g></g><g><g><path d="m102.862 54.738c-.382 0-.764-.145-1.056-.435-.588-.583-.592-1.533-.009-2.121.807-.814 1.867-1.456 3.064-1.856.813-.272 1.716-.416 2.686-.428 1.032-.011 1.941.102 2.765.353 1.298.395 2.439 1.063 3.301 1.932.583.588.58 1.538-.009 2.121s-1.538.58-2.121-.009c-.513-.518-1.22-.924-2.044-1.174-.524-.159-1.123-.229-1.854-.223-.659.008-1.255.1-1.771.273-.756.253-1.408.642-1.887 1.124-.293.295-.679.443-1.065.443z" fill="#3762cc"/></g></g><g><g><path d="m119.31 45.492c-1.56 0-2.825-1.265-2.825-2.825v-3.013c0-1.56 1.265-2.825 2.825-2.825 1.56 0 2.825 1.265 2.825 2.825v3.013c0 1.561-1.265 2.825-2.825 2.825z" fill="#3762cc"/></g></g><g><g><path d="m96.1 45.699c-1.56 0-2.825-1.265-2.825-2.825v-3.013c0-1.56 1.265-2.825 2.825-2.825 1.56 0 2.825 1.265 2.825 2.825v3.013c0 1.56-1.265 2.825-2.825 2.825z" fill="#3762cc"/></g></g><g><g><path d="m107.708 66.912c-10.832 0-20.19-6.954-23.288-17.096-1.892-.172-3.696-.946-5.122-2.229-1.842-1.657-2.898-4.022-2.898-6.49 0-2.361.933-4.576 2.625-6.235 1.211-1.188 2.707-1.982 4.334-2.325v-.283c0-13.314 10.922-24.147 24.348-24.147s24.348 10.833 24.348 24.147v.283c1.627.343 3.122 1.137 4.334 2.325 1.693 1.659 2.625 3.874 2.625 6.235 0 2.467-1.056 4.832-2.897 6.489-1.426 1.283-3.23 2.058-5.123 2.229-3.096 10.143-12.454 17.097-23.286 17.097zm-21.757-21.099c.918 0 1.731.63 1.945 1.542 2.156 9.16 10.303 15.557 19.812 15.557s17.655-6.397 19.811-15.556c.231-.98 1.151-1.638 2.157-1.531 1.395.146 2.734-.283 3.767-1.212 1.014-.913 1.573-2.161 1.573-3.516 0-1.278-.506-2.477-1.425-3.378-.93-.911-2.167-1.381-3.494-1.372-.542.016-1.056-.195-1.44-.571s-.6-.891-.6-1.429v-2.093c0-11.109-9.128-20.147-20.348-20.147s-20.349 9.039-20.349 20.147v2.093c0 .538-.216 1.052-.6 1.428s-.905.585-1.44.571c-1.342-.024-2.564.461-3.494 1.372-.919.9-1.425 2.1-1.425 3.378 0 1.354.559 2.604 1.574 3.517 1.032.929 2.371 1.361 3.766 1.211.07-.007.14-.011.21-.011z" fill="#3762cc"/></g></g><g><g><path d="m133.947 30.051h-35.062c-7.47 0-13.526-6.056-13.526-13.526.001-7.469 6.056-13.525 13.526-13.525h22.95c6.689 0 12.112 5.423 12.112 12.112z" fill="#4671c6"/></g></g><g><g><path d="m133.947 32.051h-35.062c-8.561 0-15.525-6.965-15.525-15.525 0-8.561 6.965-15.526 15.525-15.526h22.95c7.781 0 14.112 6.331 14.112 14.112v14.939c0 1.105-.895 2-2 2zm-35.062-27.051c-6.355 0-11.525 5.17-11.525 11.526 0 6.355 5.17 11.525 11.525 11.525h33.062v-12.939c0-5.576-4.536-10.112-10.112-10.112z" fill="#3762cc"/></g></g><g><g><path d="m122.135 32.076c-8.574 0-15.55-6.976-15.55-15.55s6.976-15.55 15.55-15.55 15.55 6.976 15.55 15.55-6.976 15.55-15.55 15.55zm0-26.1c-5.817 0-10.55 4.733-10.55 10.55s4.733 10.55 10.55 10.55 10.55-4.732 10.55-10.55-4.732-10.55-10.55-10.55z" fill="#f9a7a7"/></g></g><g><g><circle cx="122.135" cy="16.526" fill="#f9a7a7" r="5.85"/></g></g><g><g><path d="m81.86 152.717c-8.574 0-15.55-6.976-15.55-15.55s6.976-15.55 15.55-15.55 15.55 6.976 15.55 15.55-6.976 15.55-15.55 15.55zm0-26.1c-5.817 0-10.55 4.732-10.55 10.55s4.733 10.55 10.55 10.55 10.55-4.733 10.55-10.55-4.733-10.55-10.55-10.55z" fill="#f9a7a7"/></g></g><g><g><circle cx="81.86" cy="137.167" fill="#f9a7a7" r="5.85"/></g></g><g><g><path d="m107.359 96.632c-8.574 0-15.55-6.976-15.55-15.55s6.976-15.55 15.55-15.55 15.55 6.976 15.55 15.55-6.975 15.55-15.55 15.55zm0-26.1c-5.817 0-10.55 4.732-10.55 10.55s4.733 10.55 10.55 10.55 10.55-4.732 10.55-10.55-4.732-10.55-10.55-10.55z" fill="#f9a7a7"/></g></g><g><g><circle cx="107.359" cy="81.082" fill="#f9a7a7" r="5.85"/></g></g><g><g><path d="m134.635 206.548c-8.574 0-15.55-6.976-15.55-15.55s6.976-15.55 15.55-15.55 15.55 6.976 15.55 15.55-6.976 15.55-15.55 15.55zm0-26.1c-5.817 0-10.55 4.732-10.55 10.55s4.732 10.55 10.55 10.55 10.55-4.733 10.55-10.55-4.733-10.55-10.55-10.55z" fill="#f9a7a7"/></g></g><g><g><circle cx="134.635" cy="190.998" fill="#f9a7a7" r="5.85"/></g></g></g></g></svg>